<svg xmlns="http://www.w3.org/2000/svg" viewBox="0 0 720 300" font-family="Segoe UI, Arial, sans-serif" font-size="11" fill="#2B2B2B">
<title>Falla eléctrica, con incidencia general</title>
<rect width="720" height="300" fill="#FFFFFF"/>
<rect x="374.0" y="40" width="330.0" height="224" fill="#2B2B2B" opacity="0.05"/>
<text x="36" y="268" text-anchor="end">0</text><line x1="44" x2="704" y1="264" y2="264" stroke="#E5E5E5"/>
<text x="36" y="156" text-anchor="end">35</text><line x1="44" x2="704" y1="152" y2="152" stroke="#E5E5E5"/>
<text x="36" y="44" text-anchor="end">70</text><line x1="44" x2="704" y1="40" y2="40" stroke="#E5E5E5"/>
<polygon points="44.0,264.0 94.8,254.4 145.5,238.4 196.3,222.4 247.1,216.0 297.8,200.0 348.6,190.4 399.4,184.0 450.2,180.8 500.9,164.8 551.7,116.8 602.5,91.2 653.2,75.2 704.0,72.0 704.0,264.0 653.2,264.0 602.5,264.0 551.7,264.0 500.9,264.0 450.2,264.0 399.4,264.0 348.6,264.0 297.8,264.0 247.1,264.0 196.3,264.0 145.5,264.0 94.8,264.0 44.0,264.0" fill="#B8E8D0" stroke="#5FAE88" stroke-width="1.5"/>
<polygon points="44.0,260.8 94.8,244.8 145.5,228.8 196.3,216.0 247.1,209.6 297.8,196.8 348.6,184.0 399.4,184.0 450.2,168.0 500.9,164.8 551.7,97.6 602.5,81.6 653.2,75.2 704.0,65.6 704.0,72.0 653.2,75.2 602.5,91.2 551.7,116.8 500.9,164.8 450.2,180.8 399.4,184.0 348.6,190.4 297.8,200.0 247.1,216.0 196.3,222.4 145.5,238.4 94.8,254.4 44.0,264.0" fill="#BFE0F0" stroke="#6AAAD0" stroke-width="1.5"/>
<polygon points="44.0,260.8 94.8,244.8 145.5,228.8 196.3,216.0 247.1,209.6 297.8,196.8 348.6,184.0 399.4,184.0 450.2,168.0 500.9,116.8 551.7,88.0 602.5,81.6 653.2,75.2 704.0,65.6 704.0,65.6 653.2,75.2 602.5,81.6 551.7,97.6 500.9,164.8 450.2,168.0 399.4,184.0 348.6,184.0 297.8,196.8 247.1,209.6 196.3,216.0 145.5,228.8 94.8,244.8 44.0,260.8" fill="#F2C4A8" stroke="#C98763" stroke-width="1.5"/>
<text x="44" y="282" text-anchor="middle">1</text>
<text x="94.76923076923077" y="282" text-anchor="middle">2</text>
<text x="145.53846153846155" y="282" text-anchor="middle">3</text>
<text x="196.30769230769232" y="282" text-anchor="middle">4</text>
<text x="247.0769230769231" y="282" text-anchor="middle">5</text>
<text x="297.84615384615387" y="282" text-anchor="middle">6</text>
<text x="348.61538461538464" y="282" text-anchor="middle">7</text>
<text x="399.38461538461536" y="282" text-anchor="middle">8</text>
<text x="450.1538461538462" y="282" text-anchor="middle">9</text>
<text x="500.9230769230769" y="282" text-anchor="middle">10</text>
<text x="551.6923076923077" y="282" text-anchor="middle">11</text>
<text x="602.4615384615385" y="282" text-anchor="middle">12</text>
<text x="653.2307692307693" y="282" text-anchor="middle">13</text>
<text x="704" y="282" text-anchor="middle">14</text>
<text x="374" y="296" text-anchor="middle">Día (la zona sombreada es la semana de la crisis)</text>
<rect x="44" y="12" width="12" height="12" rx="3" fill="#B8E8D0" stroke="#5FAE88"/><text x="62" y="22">Resueltas</text>
<rect x="154" y="12" width="12" height="12" rx="3" fill="#BFE0F0" stroke="#6AAAD0"/><text x="172" y="22">En proceso</text>
<rect x="264" y="12" width="12" height="12" rx="3" fill="#F2C4A8" stroke="#C98763"/><text x="282" y="22">Pendientes</text>
<text x="704" y="22" text-anchor="end" font-weight="bold">Falla eléctrica, con incidencia general</text>
</svg>
